<svg xmlns="http://www.w3.org/2000/svg" width="14" height="14" viewBox="0 0 14 14">
  <g id="external-link" transform="translate(-4 -3)">
    <g id="グループ_5063" data-name="グループ 5063" transform="translate(4 3.824)">
      <path id="パス_3628" data-name="パス 3628" d="M15.529,17.176H5.647A1.652,1.652,0,0,1,4,15.529V5.647A1.652,1.652,0,0,1,5.647,4H8.941a.778.778,0,0,1,.824.824.778.778,0,0,1-.824.824H5.647v9.882h9.882V12.235a.824.824,0,1,1,1.647,0v3.294A1.652,1.652,0,0,1,15.529,17.176Z" transform="translate(-4 -4)" fill="#222426"/>
    </g>
    <g id="グループ_5064" data-name="グループ 5064" transform="translate(12.235 3)">
      <path id="パス_3629" data-name="パス 3629" d="M18.941,8.765a.778.778,0,0,1-.824-.824V4.647H14.824A.778.778,0,0,1,14,3.824.778.778,0,0,1,14.824,3h4.118a.778.778,0,0,1,.824.824V7.941A.778.778,0,0,1,18.941,8.765Z" transform="translate(-14 -3)" fill="#222426"/>
    </g>
    <g id="グループ_5065" data-name="グループ 5065" transform="translate(10.588 3)">
      <path id="パス_3630" data-name="パス 3630" d="M12.824,10.412a.748.748,0,0,1-.576-.247.8.8,0,0,1,0-1.153l5.765-5.765A.815.815,0,0,1,19.165,4.4L13.4,10.165a.748.748,0,0,1-.576.247Z" transform="translate(-12 -3)" fill="#222426"/>
    </g>
  </g>
</svg>
