<svg width="37" height="37" viewBox="0 0 37 37" fill="none" xmlns="http://www.w3.org/2000/svg">
<path fill-rule="evenodd" clip-rule="evenodd" d="M0.948975 0.84375H16.856V16.7507H0.948975V0.84375ZM3.46097 3.35575V14.2388H14.344V3.35575H3.46097ZM6.39097 6.28575H11.414V11.3088H6.39097V6.28575ZM0.948975 20.9368H16.856V36.8438H0.948975V20.9368ZM3.46097 23.4487V34.3317H14.344V23.4487H3.46097ZM6.39097 26.3787H11.414V31.4018H6.39097V26.3787ZM22.299 0.84375H21.042V16.7507H36.949V0.84375H22.299ZM23.555 14.2437V3.35575H34.437V14.2388L23.555 14.2437ZM31.508 6.29075H26.484V11.3138H31.507L31.508 6.29075ZM26.485 21.3608H21.461V26.3838H26.484V31.4067H21.461V36.4297H26.484V31.4018H31.507V36.4248H36.53V31.4018H31.507V26.3787H36.53V21.3557H31.507V26.3787H26.484L26.485 21.3608Z" fill="#D2D7DA"/>
<path d="M29.949 7.84375H7.94897V29.8438H29.949V7.84375Z" fill="#D2D7DA"/>
<path d="M14.6382 20.1165H15.7973L16.7688 21.3949L17.0245 21.7358L18.4734 23.6619H17.3143L16.3598 22.3835L16.1211 22.0597L14.6382 20.1165ZM18.8313 18.4801C18.8313 19.4006 18.6652 20.196 18.3328 20.8665C18.0004 21.5369 17.5444 22.054 16.9649 22.4176C16.3853 22.7812 15.7234 22.9631 14.9791 22.9631C14.2348 22.9631 13.5728 22.7812 12.9933 22.4176C12.4137 22.054 11.9578 21.5369 11.6254 20.8665C11.293 20.196 11.1268 19.4006 11.1268 18.4801C11.1268 17.5597 11.293 16.7642 11.6254 16.0938C11.9578 15.4233 12.4137 14.9062 12.9933 14.5426C13.5728 14.179 14.2348 13.9972 14.9791 13.9972C15.7234 13.9972 16.3853 14.179 16.9649 14.5426C17.5444 14.9062 18.0004 15.4233 18.3328 16.0938C18.6652 16.7642 18.8313 17.5597 18.8313 18.4801ZM17.8086 18.4801C17.8086 17.7244 17.6822 17.0866 17.4294 16.5668C17.1794 16.0469 16.8399 15.6534 16.4109 15.3864C15.9848 15.1193 15.5075 14.9858 14.9791 14.9858C14.4507 14.9858 13.972 15.1193 13.543 15.3864C13.1169 15.6534 12.7774 16.0469 12.5245 16.5668C12.2745 17.0866 12.1495 17.7244 12.1495 18.4801C12.1495 19.2358 12.2745 19.8736 12.5245 20.3935C12.7774 20.9134 13.1169 21.3068 13.543 21.5739C13.972 21.8409 14.4507 21.9744 14.9791 21.9744C15.5075 21.9744 15.9848 21.8409 16.4109 21.5739C16.8399 21.3068 17.1794 20.9134 17.4294 20.3935C17.6822 19.8736 17.8086 19.2358 17.8086 18.4801ZM20.6083 22.8438V14.1165H23.5572C24.239 14.1165 24.7987 14.233 25.2362 14.4659C25.6737 14.696 25.9975 15.0128 26.2078 15.4162C26.418 15.8196 26.5231 16.2784 26.5231 16.7926C26.5231 17.3068 26.418 17.7628 26.2078 18.1605C25.9975 18.5582 25.6751 18.8707 25.2404 19.098C24.8058 19.3224 24.2504 19.4347 23.5742 19.4347H21.1879V18.4801H23.5402C24.0061 18.4801 24.3811 18.4119 24.6652 18.2756C24.9521 18.1392 25.1595 17.946 25.2873 17.696C25.418 17.4432 25.4833 17.142 25.4833 16.7926C25.4833 16.4432 25.418 16.1378 25.2873 15.8764C25.1566 15.6151 24.9478 15.4134 24.6609 15.2713C24.374 15.1264 23.9947 15.054 23.5231 15.054H21.6652V22.8438H20.6083ZM24.7163 18.9233L26.864 22.8438H25.6367L23.5231 18.9233H24.7163Z" fill="white"/>
</svg>
